<?xml version="1.0" standalone="no"?><!DOCTYPE svg PUBLIC "-//W3C//DTD SVG 1.1//EN" "http://www.w3.org/Graphics/SVG/1.1/DTD/svg11.dtd"><svg class="icon" style="" viewBox="0 0 1024 1024" version="1.1" xmlns="http://www.w3.org/2000/svg" p-id="58923" xmlns:xlink="http://www.w3.org/1999/xlink" width="200" height="200"><defs><style type="text/css"><![CDATA[

]]></style></defs><path d="M636.096 604.16c61.44-111.68 83.776-217.792 83.776-217.792l-11.2 0 0 0L613.76 386.368 513.216 386.368 513.216 308.16l245.696 0L758.912 274.688 513.216 274.688 513.216 157.376 401.536 157.376l0 117.248-223.36 0 0 33.536 223.36 0 0 78.208L211.712 386.368 211.712 419.84l385.344 0c0 5.568 0 5.568-5.568 11.136 0 39.104-27.904 94.912-50.24 139.584-284.8-111.68-368.576-44.672-390.912-33.536-189.888 134.016-11.136 301.568 16.768 296 201.024 44.672 329.472-39.104 418.816-145.216 5.568 5.568 11.136 5.568 16.768 5.568C664 726.976 960 866.624 960 866.624l0-167.552C915.328 699.072 753.408 643.264 636.096 604.16L636.096 604.16zM490.88 654.4c-139.584 178.688-307.136 122.88-335.04 111.68-67.008-16.768-89.344-139.584-5.568-178.688C289.856 542.72 412.736 592.96 502.08 637.632 496.512 648.832 490.88 654.4 490.88 654.4L490.88 654.4zM490.88 654.4" p-id="58924"></path></svg>