<?xml version="1.0" standalone="no"?><!DOCTYPE svg PUBLIC "-//W3C//DTD SVG 1.1//EN" "http://www.w3.org/Graphics/SVG/1.1/DTD/svg11.dtd"><svg width="200" height="200" viewBox="0 0 200 200" version="1.1" xmlns="http://www.w3.org/2000/svg" xmlns:xlink="http://www.w3.org/1999/xlink"><defs><style type="text/css"><![CDATA[
@font-face { font-family: ifont; src: url("//at.alicdn.com/t/font_1442373896_4754455.eot?#iefix") format("embedded-opentype"), url("//at.alicdn.com/t/font_1442373896_4754455.woff") format("woff"), url("//at.alicdn.com/t/font_1442373896_4754455.ttf") format("truetype"), url("//at.alicdn.com/t/font_1442373896_4754455.svg#ifont") format("svg"); }

]]></style></defs><g class="transform-group"><g transform="scale(0.1953125, 0.1953125)"><path d="M1023.936 512c0 282.730667-229.205333 511.936-511.936 511.936C229.269333 1023.936 0.064 794.730667 0.064 512 0.064 229.269333 229.269333 0.064 512 0.064 794.730667 0.064 1023.936 229.269333 1023.936 512zM512 44.693333C253.909333 44.693333 44.693333 253.909333 44.693333 512c0 258.090667 209.216 467.306667 467.306667 467.306667 258.090667 0 467.306667-209.237333 467.306667-467.306667C979.306667 253.909333 770.090667 44.693333 512 44.693333zM350.037333 512l263.488 263.488-23.573333 23.573333L302.805333 512 589.866667 224.938667l23.573333 23.594667L350.037333 512z" fill="#fff"></path></g></g></svg>