<?xml version="1.0" standalone="no"?><!DOCTYPE svg PUBLIC "-//W3C//DTD SVG 1.1//EN" "http://www.w3.org/Graphics/SVG/1.1/DTD/svg11.dtd"><svg class="icon" style="" viewBox="0 0 1024 1024" version="1.1" xmlns="http://www.w3.org/2000/svg" p-id="3427" xmlns:xlink="http://www.w3.org/1999/xlink" width="200" height="200"><defs><style type="text/css"><![CDATA[

]]></style></defs><path d="M32 512c0 264.96 215.04 480 480 480 264.928 0 480-215.04 480-480S776.928 32 512 32C247.04 32 32 247.04 32 512zM64 512C64 264.64 264.64 64 512 64c247.36 0 448 200.64 448 448 0 247.36-200.64 448-448 448C264.64 960 64 759.36 64 512z" p-id="3428"></path><path d="M613.12 282.72 320 524.64 615.072 741.248 615.072 675.68 405.44 524.64 613.12 353.76Z" p-id="3429"></path></svg>