<?xml version="1.0" standalone="no"?><!DOCTYPE svg PUBLIC "-//W3C//DTD SVG 1.1//EN" "http://www.w3.org/Graphics/SVG/1.1/DTD/svg11.dtd"><svg class="icon" style="" viewBox="0 0 1024 1024" version="1.1" xmlns="http://www.w3.org/2000/svg" p-id="49960" xmlns:xlink="http://www.w3.org/1999/xlink" width="200" height="200"><defs><style type="text/css"><![CDATA[

]]></style></defs><path d="M511.994334 511.990614 511.994334 511.990614 511.994334 511.990614 511.994334 511.990614Z" p-id="49961"></path><path d="M360.05088 502.924966 84.796193 502.924966c-23.590821 0-43.83493-8.342034-60.17255-24.792292C8.320155 461.743855 0.032733 441.709662 0.00372 418.594992L0.00372 149.368142c0-23.203415 8.342034-43.121556 24.795705-59.199768 16.371753-15.970694 36.547597-24.077212 59.976287-24.106225l275.275167 0c23.382611 0 43.703519 8.060439 60.399533 23.959454 16.91105 16.131118 25.481773 36.095338 25.481773 59.346539l0 269.206371c0 23.201708-8.52123 43.29734-25.324762 59.727118C403.897756 494.640958 383.523943 502.924966 360.05088 502.924966zM84.796193 99.094077c-14.707784 0.017066-26.792469 4.829778-36.919643 14.70949-9.98211 9.755128-14.840901 21.390968-14.840901 35.564575l0 269.206371c0.017066 14.260645 4.93047 26.132001 15.016685 36.271122 10.057202 10.128881 22.073622 15.047404 36.74386 15.047404l275.254687 0c14.743623 0 26.997265-4.974842 37.462353-15.207828 10.35245-10.123761 15.385318-21.935385 15.385318-36.110698L412.898551 149.368142c0-14.062676-4.985082-25.654143-15.238547-35.43487-10.482154-9.98211-22.786996-14.839195-37.609124-14.839195L84.796193 99.094077z" p-id="49962"></path><path d="M360.05088 1023.981227 84.796193 1023.981227c-23.589114 0-43.83493-8.342034-60.17255-24.793999C8.320155 982.800115 0.032733 962.765923 0.00372 939.65296L0.00372 670.424402c0-23.203415 8.342034-43.119849 24.795705-59.199768 16.37346-15.970694 36.549303-24.078919 59.977994-24.106225l275.27346 0c23.382611 0 43.705225 8.060439 60.399533 23.957747 16.91105 16.132824 25.481773 36.095338 25.481773 59.346539l0 269.206371c0 23.203415-8.52123 43.29734-25.324762 59.727118C403.897756 1015.697219 383.523943 1023.981227 360.05088 1023.981227zM84.796193 620.152044c-14.707784 0.017066-26.790762 4.829778-36.919643 14.70949-9.98211 9.755128-14.840901 21.390968-14.840901 35.564575l0 269.206371c0.017066 14.260645 4.93047 26.132001 15.016685 36.271122 10.058909 10.128881 22.075329 15.047404 36.74386 15.047404l275.254687 0c14.741916 0 26.997265-4.974842 37.462353-15.209534 10.35245-10.122054 15.385318-21.933678 15.385318-36.108991L412.898551 670.424402c0-14.062676-4.985082-25.654143-15.238547-35.436577-10.480448-9.980404-22.786996-14.837488-37.609124-14.837488L84.796193 620.150337z" p-id="49963"></path><path d="M905.073421 1023.981227 629.818734 1023.981227c-23.589114 0-43.83493-8.342034-60.17255-24.792292-16.303488-16.387113-24.587496-36.419599-24.618215-59.535975L545.027968 670.424402c0-23.203415 8.342034-43.118143 24.793999-59.198061 16.375166-15.972401 36.55101-24.080625 59.977994-24.107931l275.27346 0c23.382611 0 43.703519 8.060439 60.399533 23.957747 16.91105 16.131118 25.481773 36.095338 25.481773 59.346539l0 269.206371c0 23.203415-8.52123 43.299046-25.326469 59.727118C948.91859 1015.697219 928.544777 1023.981227 905.073421 1023.981227zM629.818734 620.152044c-14.707784 0.017066-26.790762 4.829778-36.92135 14.70949-9.980404 9.755128-14.839195 21.390968-14.839195 35.564575l0 269.206371c0.017066 14.262352 4.93047 26.133708 15.014978 36.271122 10.058909 10.128881 22.075329 15.047404 36.745566 15.047404l275.254687 0c14.741916 0 26.995558-4.974842 37.462353-15.209534 10.354157-10.122054 15.387025-21.933678 15.387025-36.108991L957.922799 670.424402c0-14.062676-4.985082-25.654143-15.240254-35.43487-10.482154-9.98211-22.786996-14.839195-37.609124-14.839195L629.818734 620.150337z" p-id="49964"></path><path d="M744.178664 554.352717l-0.322554 0c-23.118083-0.059732-43.142036-8.367633-59.506962-24.689894L493.977384 339.29106c-16.407593-16.407593-24.592616-36.390586-24.328087-59.392618 0.285008-22.870621 8.818185-42.868974 25.364015-59.455763L689.661903 25.79238c16.53559-16.533884 36.603916-25.203591 59.65032-25.766781C750.066556 0.008533 750.803822 0 751.535969 0c22.418362 0 41.851819 8.065559 57.761074 23.971401l190.356403 190.356403c16.405886 16.405886 24.590909 36.639755 24.326381 60.141831-0.261115 23.367252-8.811358 43.63184-25.408388 60.230576L803.936502 529.335149C787.336059 545.935591 767.231895 554.352717 744.178664 554.352717zM751.535969 33.031928c-0.474445 0-0.950596 0.00512-1.428454 0.017066-14.470561 0.353274-26.606446 5.621657-37.086893 16.102105L518.383977 243.784331c-10.38829 10.412182-15.530382 22.35863-15.706165 36.508344-0.160424 13.955157 4.633515 25.618304 14.654878 35.639667l190.35811 190.356403c10.096455 10.072562 21.964397 14.992792 36.266002 15.030338l0.221863 0c14.170194 0 26.077389-5.017508 36.399119-15.342652l194.633232-194.634938c10.425836-10.424129 15.573048-22.606092 15.738591-37.242197 0.160424-14.480801-4.631808-26.391409-14.656585-36.414479L785.938325 47.330119C776.316315 37.708109 765.064468 33.031928 751.535969 33.031928z" p-id="49965"></path></svg>