<?xml version="1.0" standalone="no"?><!DOCTYPE svg PUBLIC "-//W3C//DTD SVG 1.1//EN" "http://www.w3.org/Graphics/SVG/1.1/DTD/svg11.dtd"><svg t="1481017399403" class="icon" style="" viewBox="0 0 1024 1024" version="1.1" xmlns="http://www.w3.org/2000/svg" p-id="1066" xmlns:xlink="http://www.w3.org/1999/xlink" width="200" height="200"><defs><style type="text/css"></style></defs><path d="M512 962c-248.479 0-449.906-201.473-449.906-450s201.427-450 449.906-450c248.479 0 449.906 201.473 449.906 450 0 248.527-201.427 450-449.906 450zM512 90.129c-232.948 0-421.787 188.886-421.787 421.871 0 232.995 188.839 421.871 421.787 421.871 232.948 0 421.787-188.876 421.787-421.871 0-232.986-188.839-421.871-421.787-421.871zM624.477 690.135h-18.746c-20.706 0-37.492-16.787-37.492-37.493v-281.191c0-20.706 16.787-37.493 37.492-37.493h18.746c20.706 0 37.492 16.787 37.492 37.493v281.191c0 20.706-16.787 37.493-37.492 37.493zM418.27 690.135h-18.746c-20.706 0-37.492-16.787-37.492-37.493v-281.191c0-20.706 16.787-37.493 37.492-37.493h18.746c20.706 0 37.492 16.787 37.492 37.493v281.191c0 20.706-16.787 37.493-37.492 37.493z" p-id="1067" fill="#707070"></path></svg>