<?xml version="1.0" standalone="no"?><!DOCTYPE svg PUBLIC "-//W3C//DTD SVG 1.1//EN" "http://www.w3.org/Graphics/SVG/1.1/DTD/svg11.dtd"><svg t="1481017467674" class="icon" style="" viewBox="0 0 1024 1024" version="1.1" xmlns="http://www.w3.org/2000/svg" p-id="1695" xmlns:xlink="http://www.w3.org/1999/xlink" width="200" height="200"><defs><style type="text/css"></style></defs><path d="M512 42.666667C252.795691 42.666667 42.666667 252.791424 42.666667 512 42.666667 771.203243 252.795691 981.333333 512 981.333333 771.206443 981.333333 981.333333 771.203243 981.333333 512 981.333333 252.792491 771.206443 42.666667 512 42.666667L512 42.666667ZM512 947.810133C271.309355 947.810133 76.189867 752.690645 76.189867 512 76.189867 271.308288 271.309355 76.189867 512 76.189867 752.691712 76.189867 947.810133 271.307221 947.810133 512 947.809067 752.690645 752.691712 947.810133 512 947.810133L512 947.810133ZM395.777536 675.430955 686.889131 512 395.777536 348.569045 395.777536 675.430955Z" p-id="1696" fill="#707070"></path></svg>