<?xml version="1.0" standalone="no"?><!DOCTYPE svg PUBLIC "-//W3C//DTD SVG 1.1//EN" "http://www.w3.org/Graphics/SVG/1.1/DTD/svg11.dtd"><svg class="icon" style="" viewBox="0 0 1024 1024" version="1.1" xmlns="http://www.w3.org/2000/svg" p-id="69432" xmlns:xlink="http://www.w3.org/1999/xlink" width="200" height="200"><defs><style type="text/css"><![CDATA[

]]></style></defs><path d="M 820.857 252.95 c 4.81977 -6.23807 -0.600681 0.518816 -1.67106 1.72529 c -1.26378 1.42444 -2.56338 2.81819 -3.89675 4.17918 c -3.17737 3.24286 -7.63591 5.96588 -10.451 9.44 c 0.216941 -0.268106 4.89857 -3.63069 1.65366 -1.29141 c -0.75213 0.542352 -1.49607 1.09391 -2.25434 1.62603 c -1.69869 1.1942 -3.43012 2.34133 -5.19021 3.44342 c -3.69107 2.3096 -7.51107 4.4125 -11.4385 6.29231 c -1.02842 0.493234 -2.07526 0.947582 -3.10778 1.43058 c -2.81102 1.31495 4.98964 -1.98112 2.09062 -0.881067 c -1.91358 0.726547 -3.81386 1.47765 -5.75098 2.14076 c -4.2897 1.46844 -8.66536 2.68925 -13.0963 3.6532 c -1.7693 0.384763 -3.54883 0.729617 -5.3345 1.03354 c -0.865717 0.147356 -1.82149 0.220011 -2.68311 0.424672 c 6.73642 -1.59533 3.85582 -0.453325 1.81228 -0.285502 c -4.29993 0.352017 -8.56814 0.670266 -12.8875 0.651846 c -4.09937 -0.017396 -8.15575 -0.346901 -12.2357 -0.691755 c -4.04718 -0.342808 2.19295 0.292666 2.46412 0.361227 c -1.08777 -0.274246 -2.26867 -0.347924 -3.37691 -0.541329 c -2.2523 -0.393973 -4.49231 -0.853437 -6.71698 -1.37942 c -4.0308 -0.952698 -8.00839 -2.12029 -11.9144 -3.49971 c -2.0548 -0.725524 -7.87332 -3.84047 -1.26378 -0.309038 c -2.05071 -1.09596 -4.27435 -1.91461 -6.35678 -2.9635 c -3.80772 -1.9187 -7.50902 -4.04922 -11.0824 -6.37622 c -1.61068 -1.04889 -3.19579 -2.13871 -4.75326 -3.26639 c 0.240477 0.173962 -2.59101 -1.89107 -2.33211 -1.73348 c 5.27514 3.21421 2.47128 1.89721 1.00386 0.674359 c -3.293 -2.74553 -6.4325 -5.67116 -9.40214 -8.76359 c -1.46435 -1.52575 -2.88777 -3.08936 -4.26616 -4.69288 c -0.608867 -0.709151 -1.19727 -1.43467 -1.80102 -2.14792 c -3.30733 -3.91108 3.3984 4.70721 0.412392 0.565888 c -5.01625 -6.95541 -9.16268 -14.228 -12.7934 -21.9898 c -1.40909 -3.01261 2.31677 6.03648 0.626263 1.45821 c -0.315178 -0.853437 -0.659009 -1.69562 -0.973164 -2.54906 c -0.62831 -1.70483 -1.21671 -3.42398 -1.7652 -5.15542 c -1.36816 -4.3204 -2.48663 -8.72164 -3.34826 -13.171 c -0.228197 -1.17578 -1.28425 -8.17724 -0.652869 -3.43729 c 0.633427 4.75633 -0.207731 -2.52859 -0.281409 -3.48743 c -0.328481 -4.29277 -0.421602 -8.60396 -0.276293 -12.907 c 0.068562 -2.04252 0.187265 -4.08299 0.361227 -6.11937 c 0.077771 -0.905626 0.188288 -1.80921 0.264013 -2.71585 c 0.342808 -4.04718 -0.292666 2.19295 -0.361227 2.46412 c 1.1154 -4.41864 1.57589 -9.00202 2.75986 -13.4299 c 1.07652 -4.02569 2.46105 -7.91732 3.864 -11.8356 c 0.522909 -1.45923 1.94121 -4.06457 -0.89437 1.99442 c 0.394996 -0.844228 0.747014 -1.71097 1.13587 -2.55826 c 0.978281 -2.13257 2.02205 -4.23546 3.12825 -6.30357 c 3.02592 -5.65684 6.54711 -10.9975 10.4162 -16.1099 c 4.52199 -5.97508 9.08798 -11.9164 13.6325 -17.8741 c 12.5989 -16.5192 25.1989 -33.0385 37.7979 -49.5577 c 5.14518 -6.74563 4.02057 -17.9212 0 -24.7916 c -4.78703 -8.18031 -12.3022 -11.0558 -21.206 -12.164 c -84.1864 -10.4797 -172.186 24.0784 -226.419 89.4093 c -29.4282 35.4504 -50.2454 78.0087 -57.3891 123.727 c -6.91653 44.2641 -3.5212 90.0029 12.4311 132.081 c 30.0924 79.3748 97.8946 141.4 181.017 161.099 c 86.7365 20.5552 180.439 -5.34063 243.342 -68.804 c 64.3148 -64.8878 89.8084 -161.271 65.8764 -249.452 c -2.64729 -9.75518 -5.95257 -19.3067 -9.80737 -28.6495 c -3.8507 -9.33358 -9.79202 -16.1641 -20.418 -17.5917 c -10.5452 -1.41728 -18.2896 3.62046 -24.4703 11.725 C 855.371 207.697 838.114 230.324 820.857 252.95 c -3.59283 4.7113 -3.96634 13.5128 -2.47538 18.924 c 1.56873 5.69675 5.97304 11.8704 11.286 14.6773 c 5.69982 3.01159 12.6051 4.52097 18.924 2.47538 c 6.49186 -2.10085 10.5748 -5.90755 14.6773 -11.286 c 17.257 -22.6263 34.5141 -45.2526 51.7721 -67.879 c -14.9628 -1.95554 -29.9256 -3.91108 -44.8884 -5.86661 c 3.75349 9.09719 6.98611 18.3919 9.59657 27.882 c 2.61762 9.51572 4.07685 19.1246 6.00374 28.7723 c -1.48993 -7.46297 0.00307 0.237407 0.204661 2.14178 c 0.251733 2.36998 0.467651 4.74405 0.647753 7.12119 c 0.379647 5.02136 0.593518 10.054 0.647753 15.0897 c 0.105401 9.8309 -0.407276 19.6679 -1.54008 29.4344 c -0.122797 1.05708 -0.283456 2.11517 -0.38988 3.1743 c 0.654916 -6.49492 0.455371 -3.24695 0.209778 -1.77441 c -0.394996 2.37202 -0.756223 4.74712 -1.18806 7.11403 c -0.915859 5.00908 -1.99545 9.98849 -3.23979 14.927 c -2.44366 9.70094 -5.51767 19.2423 -9.19441 28.5462 c -0.445138 1.12666 -0.800225 2.84786 -1.53496 3.7893 c 0.281409 -0.361227 2.3536 -5.35803 0.539282 -1.34565 c -1.01717 2.25025 -2.02922 4.49948 -3.09755 6.72619 c -2.27174 4.73381 -4.70209 9.3919 -7.28901 13.961 c -5.00397 8.8383 -10.6588 17.2059 -16.6431 25.4036 c -3.37077 4.61716 2.54701 -3.1262 0.251733 -0.317225 c -0.874927 1.07038 -1.72325 2.16225 -2.60022 3.2316 c -1.39477 1.70176 -2.81409 3.3851 -4.25695 5.04797 c -3.57134 4.11574 -7.28492 8.10765 -11.1346 11.9645 c -3.23467 3.24081 -6.56656 6.38543 -9.98747 9.42977 c -1.79795 1.60045 -3.62046 3.1743 -5.46753 4.71744 c -1.74167 1.45514 -4.11062 4.30914 -6.21659 5.01522 c 3.1129 -1.04275 3.21625 -2.4191 1.17271 -0.945535 c -1.07345 0.773619 -2.1295 1.5718 -3.20295 2.34542 c -1.92791 1.3876 -3.87731 2.74655 -5.84717 4.07378 c -4.13927 2.78851 -8.3686 5.44194 -12.6788 7.95723 c -8.36962 4.88322 -17.0483 8.93039 -25.8313 12.9888 c 6.46218 -2.98601 0.353041 -0.196475 -1.33849 0.459464 c -2.41398 0.937348 -4.84433 1.83377 -7.28799 2.68925 c -4.39101 1.53803 -8.82909 2.94508 -13.305 4.21807 c -9.42772 2.68209 -19.0253 4.77168 -28.715 6.25342 c -1.01819 0.155543 -2.04559 0.277316 -3.06071 0.447185 c 6.58293 -1.1021 3.44445 -0.451278 1.92689 -0.281409 c -2.30653 0.25685 -4.61102 0.514723 -6.92267 0.721431 c -4.88117 0.435928 -9.77564 0.720408 -14.6742 0.850367 c -9.68252 0.255827 -19.3783 -0.095167 -29.0179 -1.03763 c -1.888 -0.184195 -3.99192 -0.663102 -5.89527 -0.652869 c 0.810459 -0.004093 5.3304 0.810459 0.648776 0.071631 c -1.30472 -0.205685 -2.60943 -0.403183 -3.9121 -0.621147 c -5.59442 -0.937348 -11.151 -2.08038 -16.6625 -3.42091 c -8.70117 -2.1162 -17.2836 -4.73893 -25.6778 -7.85797 c -2.08243 -0.773619 -4.15565 -1.57385 -6.21351 -2.40784 c -0.868787 -0.352017 -1.72836 -0.728594 -2.60022 -1.07447 c 0.440022 0.173962 5.92494 2.57976 1.85832 0.760317 c -4.15258 -1.85832 -8.26627 -3.79033 -12.3155 -5.86559 c -7.92653 -4.06355 -15.6116 -8.58452 -23.0213 -13.5271 c -3.93871 -2.62683 -8.97132 -5.23319 -12.1937 -8.68992 c 0.468674 0.503467 4.09323 3.28379 0.584308 0.406253 c -0.949628 -0.778736 -1.90744 -1.54622 -2.854 -2.32905 c -2.05582 -1.70073 -4.08299 -3.43422 -6.08048 -5.20249 c -6.77326 -5.99248 -13.1914 -12.3759 -19.2218 -19.1154 c -2.79363 -3.12211 -5.50436 -6.31687 -8.11994 -9.5894 c -1.18601 -1.48379 -4.46775 -6.50618 -0.461511 -0.552585 c -1.24332 -1.84809 -2.65957 -3.59385 -3.94792 -5.41329 c -5.32631 -7.51925 -10.1983 -15.3547 -14.5954 -23.4521 c -2.5071 -4.61613 -4.84945 -9.3213 -7.03625 -14.0971 c -0.681522 -1.48891 -1.45412 -2.98294 -2.01489 -4.52199 c 0.289596 0.793062 1.87367 4.6806 0.191358 0.391926 c -0.644683 -1.64445 -1.2996 -3.28481 -1.92075 -4.93848 c -3.56111 -9.47274 -6.5072 -19.1737 -8.81374 -29.0271 c -1.04582 -4.46775 -1.96168 -8.96519 -2.74348 -13.4862 c -0.230244 -1.32928 -0.447185 -2.6606 -0.653893 -3.99396 c -0.183172 -1.17987 0.021489 -4.36133 -0.143263 -0.73985 c -0.188288 4.13927 -0.081864 -0.717338 -0.179079 -1.55133 c -0.187265 -1.60761 -0.358157 -3.21727 -0.512676 -4.82898 c -0.926092 -9.67741 -1.24946 -19.4131 -0.966001 -29.1305 c 0.14224 -4.87094 0.435928 -9.73778 0.88209 -14.5903 c 0.224104 -2.4324 0.51984 -4.85457 0.786922 -7.28185 c 0.369414 -3.36565 -0.759293 5.02853 -0.226151 1.68334 c 0.25685 -1.61171 0.48607 -3.22648 0.754177 -4.83717 c 1.6639 -9.97928 3.97861 -19.8491 6.92983 -29.5265 c 1.449 -4.74916 3.05048 -9.45228 4.80238 -14.0991 c 0.693802 -1.84093 1.17885 -4.698 2.43752 -6.19305 c -3.02694 3.59794 -1.2116 2.81511 -0.188288 0.48914 c 0.561795 -1.27709 1.13382 -2.55008 1.71915 -3.81693 c 4.50152 -9.74802 9.68355 -19.1819 15.4867 -28.2166 c 2.64525 -4.11881 5.42148 -8.15268 8.31743 -12.0985 c 0.831948 -1.13382 1.61887 -2.49584 2.60841 -3.48947 c -0.387833 0.388856 -3.5171 4.42682 -0.826831 1.1021 c 1.7038 -2.10494 3.40761 -4.20784 5.16667 -6.26775 c 6.40487 -7.49981 13.2774 -14.5975 20.5777 -21.2295 c 3.30323 -3.00136 6.6914 -5.90755 10.1614 -8.71345 c 0.407276 -0.327458 0.815575 -0.653893 1.22285 -0.981351 c 1.64445 -1.29244 1.63729 -1.29653 -0.020466 -0.010233 c -0.416486 0.320295 -0.832971 0.64059 -1.24843 0.961908 c 0.826831 -0.632403 1.65878 -1.25867 2.4938 -1.87981 c 2.08345 -1.54826 4.19248 -3.06173 6.32608 -4.53939 c 7.62158 -5.27924 15.5645 -10.0959 23.7642 -14.4225 c 4.07071 -2.1469 8.20487 -4.17509 12.3963 -6.07537 c 0.929162 -0.421602 1.86651 -0.823761 2.79567 -1.24639 c 4.80135 -2.18271 -4.19248 1.6772 -0.940418 0.38681 c 2.60329 -1.03252 5.19533 -2.0814 7.82215 -3.0515 c 8.56814 -3.16509 17.3225 -5.82568 26.2018 -7.96644 c 4.43092 -1.06833 8.89253 -2.0067 13.3777 -2.81614 c 1.99238 -0.35918 3.98987 -0.692778 5.99146 -0.99977 c 0.663102 -0.102331 5.71721 -0.836041 1.24536 -0.204661 c -4.42068 0.62524 1.12154 -0.11154 2.00977 -0.209778 c 9.31413 -1.03149 18.6886 -1.50426 28.0601 -1.41626 c 9.15245 0.085958 18.2814 0.741897 27.3622 1.87265 c -7.069 -12.3186 -14.138 -24.6371 -21.206 -36.9547 c -11.8448 15.5307 -23.6895 31.0604 -35.5353 46.5911 c -5.21272 6.83364 -10.4367 13.6591 -15.6371 20.5019 c -10.141 13.346 -17.6807 28.7815 -22.3071 44.8945 c -11.2226 39.0893 -4.6847 83.8374 18.4185 117.488 c 24.8889 36.2516 63.8164 58.618 107.612 62.1137 c 23.5002 1.87572 46.7671 -3.1876 68.2269 -12.5232 c 22.4125 -9.74904 40.4288 -25.8559 55.2299 -45.0152 c 3.6092 -4.67242 3.9561 -13.5486 2.47538 -18.924 c -1.56873 -5.69675 -5.97406 -11.8704 -11.286 -14.6773 c -5.69982 -3.01159 -12.6051 -4.52097 -18.924 -2.47538 C 829.024 243.77 824.999 247.589 820.857 252.95 Z" p-id="69433"></path><path d="M 661.31 495.272 c -3.77191 -0.291642 -7.74643 -1.15736 -11.5142 -1.13894 c 0.810459 -0.004093 5.32938 0.810459 0.648776 0.071631 c -1.30472 -0.205685 -2.61045 -0.402159 -3.9121 -0.621147 c -2.89596 -0.48607 -5.78373 -1.02331 -8.66024 -1.61682 c -9.26297 -1.91256 -18.4062 -4.39408 -27.3663 -7.42511 c -3.76474 -1.27299 -7.49879 -2.64115 -11.1939 -4.1055 c -0.892323 -0.354064 -1.77748 -0.725524 -2.66674 -1.08777 c -3.71665 -1.51552 1.80614 0.74292 2.06912 0.874927 c -2.12029 -1.0581 -4.35826 -1.92075 -6.50516 -2.92973 c -7.67889 -3.60613 -15.1715 -7.62261 -22.4084 -12.0505 c -3.75758 -2.29937 -7.45376 -4.70414 -11.0793 -7.20817 c -2.03536 -1.405 -4.04922 -2.84275 -6.0416 -4.30914 c -0.981351 -0.722454 -2.03638 -1.44184 -2.97577 -2.22774 c 4.54757 3.80875 0.248663 0.13303 -0.808412 -0.727571 c -7.17133 -5.84001 -14.0336 -12.076 -20.4579 -18.7306 c -5.69777 -5.90345 -11.0364 -12.1016 -16.1334 -18.527 c -2.45286 -3.09243 1.10619 1.3129 1.24536 1.60454 c -0.459464 -0.961908 -1.40091 -1.88902 -2.03433 -2.75781 c -1.1502 -1.57692 -2.283 -3.16611 -3.39328 -4.77168 c -2.61864 -3.78521 -5.12472 -7.64819 -7.51414 -11.5818 c -2.65446 -4.36849 -5.15849 -8.82602 -7.51618 -13.3613 c -1.33849 -2.57362 -2.62683 -5.17179 -3.8681 -7.7935 c -0.706081 -1.493 -1.39477 -2.99317 -2.06912 -4.5005 c -0.407276 -0.902556 -0.806365 -1.80818 -1.19727 -2.71688 c 0.312108 0.740874 0.62524 1.48175 0.937348 2.22262 c 0.452301 -0.437975 -4.09118 -10.6526 -4.52608 -11.897 c -1.93712 -5.5412 -3.66651 -11.1551 -5.18305 -16.8262 c -2.52347 -9.43693 -10.9258 -16.3166 -20.418 -17.5917 c -10.5452 -1.41728 -18.2896 3.62046 -24.4703 11.725 c -14.4859 18.9936 -28.9729 37.9861 -43.4588 56.9797 c -32.3508 42.416 -64.7026 84.8331 -97.0534 127.249 c -33.3895 43.7781 -66.7789 87.5551 -100.168 131.333 c -18.2353 23.9085 -36.4839 47.8058 -54.7049 71.7246 c -19.6014 25.7321 -30.5344 56.5377 -33.0804 88.6859 c -3.56213 44.9774 12.8711 90.2761 42.7148 123.773 c 30.0003 33.6729 74.0393 53.2201 118.919 54.6333 c 44.5854 1.40398 89.0542 -16.0147 121.109 -46.937 c 9.91481 -9.56484 17.9805 -20.8243 26.3153 -31.7511 c 9.4267 -12.3595 18.8524 -24.718 28.2791 -37.0775 c 31.3981 -41.1666 62.7962 -82.3332 94.1943 -123.501 c 33.9697 -44.5384 67.9393 -89.0757 101.908 -133.614 c 20.3546 -26.6878 40.7092 -53.3757 61.0648 -80.0625 c 0.977257 -1.2822 1.95554 -2.56338 2.9328 -3.84559 c 5.14518 -6.74563 4.02057 -17.9212 0 -24.7916 c -4.36235 -7.45479 -12.5549 -12.1866 -21.206 -12.164 C 673.801 495.918 667.556 495.707 661.31 495.272 c -12.8435 -0.893346 -25.1252 11.9338 -24.5593 24.5593 c 0.630357 14.0694 10.801 23.6026 24.5593 24.5593 c 6.24728 0.433882 12.4915 0.645706 18.7531 0.629333 c -7.069 -12.3186 -14.138 -24.6371 -21.206 -36.9547 c -14.1851 18.5976 -28.3691 37.1951 -42.5542 55.7927 c -31.6212 41.4582 -63.2413 82.9175 -94.8625 124.376 c -33.2482 43.5928 -66.4965 87.1847 -99.7447 130.778 c -19.1051 25.0495 -38.2103 50.098 -57.3154 75.1475 c -0.572028 0.750083 -1.14713 1.49812 -1.71608 2.25025 c -0.102331 0.135076 -0.205685 0.268106 -0.306992 0.403183 c -0.242524 0.322341 2.21239 -2.77111 2.02205 -2.63604 c -2.10801 1.49914 -3.82205 4.63967 -5.59851 6.61567 c -3.32984 3.70437 -6.86025 7.22863 -10.5646 10.5585 c -1.74371 1.56771 -3.52529 3.09038 -5.34473 4.56906 c -1.54008 1.2515 -4.23444 2.3403 1.11847 -0.817622 c -1.3743 0.810459 -2.63194 1.95247 -3.94075 2.87242 c -3.96224 2.78749 -8.06672 5.37338 -12.296 7.73722 c -2.00159 1.11847 -4.02978 2.19192 -6.08253 3.21318 c -1.97805 0.983397 -10.538 4.49334 -2.86423 1.50733 c -8.94165 3.47924 -17.9386 6.44069 -27.3693 8.30413 c -2.22774 0.440022 -4.46468 0.795109 -6.7047 1.16145 c -5.07457 0.828878 6.25138 -0.638543 1.13075 -0.176009 c -0.903579 0.081864 -1.80511 0.191358 -2.70869 0.274246 c -4.97327 0.455371 -9.97007 0.653893 -14.9638 0.590448 c -5.01932 -0.062422 -9.99259 -0.459464 -14.9822 -0.972141 c -1.80511 -0.185218 -3.94075 -1.16759 2.45696 0.338714 c -1.31904 -0.310062 -2.72404 -0.420579 -4.06048 -0.656963 c -2.70767 -0.479931 -5.40101 -1.03456 -8.07593 -1.66901 c -4.48413 -1.06322 -8.91811 -2.34542 -13.2774 -3.84149 c -2.19806 -0.754177 -4.35417 -1.5984 -6.52665 -2.42114 c -4.82693 -1.82967 5.3918 2.50096 0.711198 0.296759 c -1.27197 -0.598634 -2.55826 -1.16452 -3.8241 -1.77544 c -8.74518 -4.22114 -16.1539 -9.95063 -24.3608 -14.9679 c 6.30766 3.85582 -0.150426 -0.233314 -1.78567 -1.64548 c -1.99033 -1.71915 -3.93052 -3.49357 -5.82159 -5.32119 c -3.732 -3.60511 -7.2624 -7.41283 -10.5748 -11.4068 c -0.733711 -0.884137 -1.39886 -1.90949 -2.2042 -2.72404 c 4.75428 4.80852 1.61887 2.09778 0.471744 0.51677 c -1.35997 -1.87367 -2.67492 -3.78112 -3.94075 -5.7213 c -2.76497 -4.23751 -5.30789 -8.62136 -7.60419 -13.13 c -1.03866 -2.04047 -1.98521 -4.12085 -2.96861 -6.18793 c -2.10289 -4.42171 1.81125 4.56088 0.582261 1.46333 c -0.420579 -1.06015 -0.854461 -2.11313 -1.26276 -3.17737 c -1.78976 -4.67242 -3.33393 -9.44 -4.62637 -14.2741 c -1.17271 -4.38487 -2.13666 -8.82602 -2.89084 -13.302 c -0.225127 -1.33951 -0.373507 -2.70051 -0.621147 -4.0349 c 1.32723 7.16417 0.455371 3.6706 0.298805 1.80102 c -0.227174 -2.71483 -0.497327 -5.41943 -0.630357 -8.14245 c -0.233314 -4.76554 -0.232291 -9.54131 0.00921 -14.3058 c 0.11461 -2.27379 0.282433 -4.5445 0.506537 -6.8101 c 0.090051 -0.907673 0.202615 -1.81228 0.293689 -2.71892 c 0.448208 -4.43399 -1.04889 6.53688 0.085958 -0.251733 c 1.59533 -9.54028 4.15462 -18.9148 7.65331 -27.9332 c 0.729617 -1.88084 3.08322 -5.23114 -0.350994 0.695848 c 0.448208 -0.773619 0.777713 -1.76316 1.14303 -2.56236 c 0.977257 -2.13564 2.01182 -4.2457 3.09448 -6.33017 c 2.41296 -4.64376 5.09095 -9.15143 8.00532 -13.4984 c 13.7727 -20.5408 29.9645 -39.7227 44.9477 -59.3681 c 31.2743 -41.0049 62.5486 -82.0088 93.8239 -123.014 c 33.4601 -43.8702 66.9201 -87.7403 100.379 -131.609 c 19.8808 -26.0667 39.7626 -52.1334 59.6434 -78.199 c 0.932232 -1.22285 1.86549 -2.4457 2.79772 -3.66855 c -14.9628 -1.95554 -29.9256 -3.91108 -44.8884 -5.86661 c 21.6992 81.1379 82.9144 146.381 161.312 175.479 c 22.524 8.35939 46.2555 12.8742 70.1763 14.7213 c 12.8394 0.991584 25.1211 -12.0044 24.5593 -24.5593 C 685.236 505.678 675.064 496.335 661.31 495.272 Z" p-id="69434"></path></svg>