<?xml version="1.0" standalone="no"?><!DOCTYPE svg PUBLIC "-//W3C//DTD SVG 1.1//EN" "http://www.w3.org/Graphics/SVG/1.1/DTD/svg11.dtd"><svg class="icon" style="" viewBox="0 0 1024 1024" version="1.1" xmlns="http://www.w3.org/2000/svg" p-id="60444" xmlns:xlink="http://www.w3.org/1999/xlink" width="200" height="200"><defs><style type="text/css"><![CDATA[

]]></style></defs><path d="M752.646825 573.516052c-84.262102 0-158.677952 53.775764-181.084265 131.383306-83.175351-49.158606-155.147546-116.377544-211.231889-197.244316 74.144674-18.502399 134.506437-72.311933 158.270676-145.336086 23.62814-72.51557 12.289907-148.425448-31.097252-208.277604-42.707684-58.833967-111.556749-93.971232-184.072319-93.971232-39.924291 0-79.169107 10.524704-113.390513 30.384008C124.112716 128.680754 81.676208 196.476837 76.583213 271.402293c-0.407276 5.058203-0.474814 10.524704-0.474814 15.990183 0 7.842619 0.407276 15.3455 0.950651 20.60734 11.270694 367.8049 308.054051 655.931087 675.655314 655.931087 5.024433 0 9.709129-0.033769 14.937201-0.407276 72.51557-5.771447 135.38955-50.65161 164.3133-117.294426 11.067057-25.971511 16.431228-53.402257 15.887852-81.477686C945.748798 660.968823 859.653955 575.178925 752.646825 573.516052zM868.073718 818.763662c-18.536168 42.810015-59.138912 71.734788-105.785302 75.435063-3.191692 0.203638-6.111185 0.1361-9.574053 0.203638-329.781912 0-596.010369-258.522961-606.263897-590.748528-0.543376-5.330402-0.814552-10.659781-0.814552-16.261359 0-3.564175-0.067538-7.061836 0.271176-10.79588 3.530406-52.281737 33.066093-99.369172 79.034031-125.985366 23.696702-13.749142 50.78771-21.014616 78.490655-21.014616 50.312896 0 98.112552 24.408923 127.784338 65.283866 30.146601 41.621956 37.95545 94.785783 21.252023 145.913231-19.961634 61.447491-81.477686 104.359836-149.579737 104.359836l-0.092098 0.002047c-13.218046 0.271176-25.238824 7.719822-31.365358 19.434631l0 0c-5.607718 10.723226-5.318122 23.573905 0.76748 34.033118l0 0c64.028269 109.892853 155.351184 201.929012 264.055978 266.160919 35.239596 20.810978 84.600817 2.512217 97.230462-35.613102 17.042141-51.500954 64.910359-86.094844 121.19834-86.094844 0.067538 0 0.067538 0 0.067538 0 65.657372 1.01819 122.285091 57.408501 123.574457 123.065873C878.66596 784.305873 875.203092 802.061258 868.073718 818.763662z" p-id="60445"></path></svg>