<?xml version="1.0" standalone="no"?><!DOCTYPE svg PUBLIC "-//W3C//DTD SVG 1.1//EN" "http://www.w3.org/Graphics/SVG/1.1/DTD/svg11.dtd"><svg class="icon" style="" viewBox="0 0 1024 1024" version="1.1" xmlns="http://www.w3.org/2000/svg" p-id="59713" xmlns:xlink="http://www.w3.org/1999/xlink" width="200" height="200"><defs><style type="text/css"><![CDATA[

]]></style></defs><path d="M390.842081 630.473275c0-153.943115 134.680399-279.183514 300.226782-279.183514 10.266831 0 21.393239 0.683569 34.016745 2.089591l5.873778 0.654916-1.239224-5.779633c-15.211447-70.825069-60.668755-135.62491-127.997186-182.464705-67.11456-46.691415-151.466714-72.405053-237.519602-72.405053-96.609315 0-187.397041 31.749098-255.640308 89.399099C39.725258 240.937444 1.81381 318.871421 1.81381 402.228921c0 48.566112 13.006222 94.490048 38.656415 136.496767 23.835871 39.034015 58.774615 75.001181 103.870696 106.938568l-38.064944 114.487497 133.081994-66.734914c6.626931 1.319042 13.06148 2.638083 19.361977 3.932566 36.205597 7.42818 67.472717 13.846356 105.482403 13.846356 10.447956 0 21.494547-0.471744 33.769105-1.435699l5.221932-0.412392-1.469468-5.027503C394.504494 679.621649 390.842081 654.776797 390.842081 630.473275zM351.169523 668.695808c-28.438703-1.290389-54.296627-6.600325-83.9766-12.694113-6.78759-1.393743-13.804401-2.831488-21.063735-4.267187-8.159844-1.630127-16.934694-0.441045-24.381293 3.303232l-43.261293 21.691021 6.900154-20.75572c5.26184-15.817244-0.607844-33.530674-14.273075-43.075051C86.774831 553.970904 44.011888 483.092623 44.011888 402.228921c0-70.721715 32.596396-137.205918 91.784426-187.205683 29.389354-24.825408 63.748906-44.342927 102.124935-58.009182 39.927361-14.216793 82.415035-21.425985 126.282125-21.425985 77.522608 0 153.316851 23.028483 213.418694 64.842821 42.515303 29.580712 75.15877 67.210751 94.743828 109.126396-86.279039 4.374634-166.771281 38.870286-227.272213 97.534384-62.199621 60.312644-96.453772 139.643434-96.453772 223.38058C348.638887 643.069151 349.489254 655.902434 351.169523 668.695808z" p-id="59714"></path><path d="M1022.184143 626.171296c0-79.750345-32.28838-147.409304-93.372597-195.662285-55.916521-44.171012-132.302235-68.496024-215.084637-68.496024-83.139535 0-160.906713 27.446096-218.972177 77.281107-57.96518 49.749054-89.88824 116.116601-89.88824 186.877201 0 82.171488 31.124881 150.371776 90.00899 197.237153 55.003731 43.774993 130.683365 66.911946 218.851427 66.911946 35.750225 0 71.88726-8.921183 106.875123-17.692964l105.886609 57.987692-29.072129-96.611361C963.458647 784.240381 1022.184143 730.415498 1022.184143 626.171296zM869.707426 802.032606c-12.679787 9.514701-18.129916 26.107611-13.560854 41.287335l0.237407 0.788969-16.974603-9.298783c-8.286734-4.53734-18.136056-5.847172-27.487028-3.514033-34.524305 8.648984-67.134003 16.820084-98.195439 16.820084-39.055504 0-75.562976-5.046946-108.508319-15.001669-32.485879-9.813506-60.769039-24.188912-84.064604-42.724057-23.477714-18.691711-41.672098-41.511439-54.073546-67.826781-13.277398-28.192086-20.009729-60.622706-20.009729-96.391351 0-58.252729 26.696012-113.246227 75.170027-154.85181 50.418296-43.272549 118.42211-67.102281 191.486172-67.102281 73.330122 0 140.42524 21.098527 188.927907 59.408041 50.590212 39.9642 77.331249 96.170317 77.331249 162.54605 0 38.8314-9.219989 70.226434-29.014824 98.806353C930.578796 754.419192 899.863237 779.409352 869.707426 802.032606z" p-id="59715"></path><path d="M242.009358 247.26864c-27.756157 0-50.336432 22.580275-50.336432 50.336432 0 27.755134 22.580275 50.334385 50.336432 50.334385 27.755134 0 50.335409-22.579251 50.335409-50.334385C292.344766 269.848914 269.764492 247.26864 242.009358 247.26864zM242.009358 289.466718c4.486174 0 8.136308 3.650133 8.136308 8.138354 0 4.483104-3.650133 8.131191-8.136308 8.131191-4.484128 0-8.132214-3.647063-8.132214-8.131191C233.877143 293.116851 237.52523 289.466718 242.009358 289.466718z" p-id="59716"></path><path d="M490.184647 347.939457c27.756157 0 50.336432-22.579251 50.336432-50.334385 0-27.756157-22.580275-50.336432-50.336432-50.336432s-50.336432 22.580275-50.336432 50.336432C439.848215 325.359182 462.428489 347.939457 490.184647 347.939457zM490.184647 305.736263c-4.486174 0-8.136308-3.647063-8.136308-8.131191 0-4.488221 3.650133-8.138354 8.136308-8.138354 4.484128 0 8.133238 3.650133 8.133238 8.138354C498.317884 302.088176 494.668775 305.736263 490.184647 305.736263z" p-id="59717"></path><path d="M624.70234 495.860415c-27.755134 0-50.335409 22.580275-50.335409 50.335409 0 27.757181 22.580275 50.337455 50.335409 50.337455s50.335409-22.580275 50.335409-50.337455C675.037748 518.440689 652.457474 495.860415 624.70234 495.860415zM624.70234 538.065655c4.485151 0 8.132214 3.647063 8.132214 8.130168 0 4.487198-3.647063 8.138354-8.132214 8.138354-4.487198 0-8.136308-3.651157-8.136308-8.138354C616.565009 541.712719 620.215142 538.065655 624.70234 538.065655z" p-id="59718"></path><path d="M810.137703 495.860415c-27.755134 0-50.335409 22.580275-50.335409 50.335409 0 27.757181 22.580275 50.337455 50.335409 50.337455 27.757181 0 50.341548-22.580275 50.341548-50.337455C860.480274 518.440689 837.894883 495.860415 810.137703 495.860415zM810.137703 538.065655c4.487198 0 8.136308 3.647063 8.136308 8.130168 0 4.487198-3.64911 8.138354-8.136308 8.138354-4.485151 0-8.132214-3.651157-8.132214-8.138354C802.005488 541.712719 805.653575 538.065655 810.137703 538.065655z" p-id="59719"></path></svg>